<svg width="185" height="54" viewBox="0 0 185 54" fill="none" xmlns="http://www.w3.org/2000/svg">
<path fill-rule="evenodd" clip-rule="evenodd" d="M46.2193 10.6004L28.7009 28.3094C25.5948 31.4271 21.4947 33.0484 17.1461 33.0484C8.20054 33.0484 0.870117 25.6904 0.870117 16.7112C0.870117 7.73199 8.20054 0.374023 17.1461 0.374023C21.4947 0.374023 25.5948 2.11998 28.7009 5.11305L33.7949 10.2262L28.5766 15.4641L23.4826 10.3509C21.7432 8.60497 19.5068 7.73199 17.1461 7.73199C12.1764 7.73199 8.20054 11.7228 8.20054 16.7112C8.20054 21.6997 12.1764 25.6904 17.1461 25.6904C19.5068 25.6904 21.8674 24.6927 23.4826 23.0715L41.1253 5.48719C38.6404 5.48719 37.398 5.48719 35.0373 5.48719V0.498735C40.5041 0.498735 45.8466 0.498735 51.3134 0.498735C51.3134 5.98603 51.3134 11.3486 51.3134 16.8359H46.2193C46.2193 14.3417 46.2193 13.0946 46.2193 10.6004ZM41.8708 18.4572C45.4739 22.0738 47.7103 24.3186 51.4376 28.0599C49.6982 29.8059 47.9588 31.5519 46.3436 33.1731L36.5283 23.3209L41.6223 18.2077L41.8708 18.4572Z" fill="#00AEEF"/>
<path fill-rule="evenodd" clip-rule="evenodd" d="M111.821 8.23073C110.206 8.23073 108.59 8.23073 107.099 8.23073C107.099 9.97668 107.099 11.5979 107.099 13.3439V13.718H106.851C105.981 13.718 105.112 13.718 104.118 13.718H103.869V13.4686C103.869 9.35313 103.869 5.23765 103.869 1.12218V0.748047H104.118C104.987 0.748047 105.857 0.748047 106.851 0.748047H107.099V0.997469C107.099 2.61872 107.099 4.11525 107.099 5.7365C108.715 5.7365 110.33 5.7365 111.821 5.7365C111.821 4.11525 111.821 2.61872 111.821 0.997469V0.748047H112.069C112.939 0.748047 113.809 0.748047 114.803 0.748047H115.051V0.997469C115.051 5.11294 115.051 9.22842 115.051 13.3439V13.718H114.803C113.933 13.718 113.063 13.718 112.069 13.718H111.821V13.4686C111.821 11.7226 111.821 9.97668 111.821 8.23073Z" fill="#00AEEF"/>
<path fill-rule="evenodd" clip-rule="evenodd" d="M94.1778 3.24247C94.1778 4.36487 94.1778 6.98381 94.1778 8.10621C94.7991 8.10621 95.9173 8.10621 96.5385 8.10621C97.6567 8.10621 98.5264 6.8591 98.5264 5.61198C98.5264 4.24016 97.5324 3.24247 96.4142 3.24247C95.793 3.24247 94.7991 3.24247 94.1778 3.24247ZM94.1778 10.4757C94.1778 12.097 94.1778 12.097 94.1778 13.7182C93.0596 13.7182 91.9414 13.7182 90.8232 13.7182C90.8232 9.47803 90.8232 5.11314 90.8232 0.872953C92.5627 0.872953 94.6748 0.872953 96.4142 0.872953C99.2719 0.748242 101.881 2.4942 101.881 5.61198C101.881 8.72977 99.5204 10.4757 96.6627 10.4757C96.0415 10.4757 94.9233 10.4757 94.1778 10.4757Z" fill="#00AEEF"/>
<path fill-rule="evenodd" clip-rule="evenodd" d="M83.6169 11.2238C85.4805 11.2238 87.2199 11.2238 89.0836 11.2238H89.4563V11.4732C89.4563 12.0968 89.4563 12.7203 89.4563 13.3439V13.718H89.2079C86.3502 13.718 83.6168 13.718 80.7592 13.718H80.5107V13.4686C80.5107 9.35313 80.5107 5.23765 80.5107 1.12218V0.748047H80.7592C81.6289 0.748047 82.4986 0.748047 83.4926 0.748047H83.7411V0.997469C83.6169 4.48939 83.6169 7.85659 83.6169 11.2238Z" fill="#00AEEF"/>
<path fill-rule="evenodd" clip-rule="evenodd" d="M73.1807 9.10399C72.5595 7.60746 72.0625 6.11092 71.4413 4.61439C70.8201 6.11092 70.1989 7.60746 69.5776 9.10399H73.1807ZM67.8382 13.7183C66.72 13.7183 65.4776 13.7183 64.3594 13.7183L70.0746 0.873047C71.0686 0.873047 72.4353 0.873047 73.305 0.873047L78.5232 13.7183C77.2808 13.7183 76.0384 13.7183 74.9202 13.7183C74.6717 12.97 74.4232 12.3465 74.1747 11.5982H68.7079C68.3352 12.3465 68.0867 12.97 67.8382 13.7183Z" fill="#00AEEF"/>
<path fill-rule="evenodd" clip-rule="evenodd" d="M125.86 9.10399C125.239 7.60746 124.742 6.11092 124.121 4.61439C123.5 6.11092 122.879 7.60746 122.257 9.10399H125.86ZM120.518 13.7183C119.4 13.7183 118.157 13.7183 117.039 13.7183L122.754 0.873047C123.748 0.873047 125.115 0.873047 125.985 0.873047L131.203 13.7183C129.96 13.7183 128.718 13.7183 127.6 13.7183C127.351 12.97 127.103 12.3465 126.854 11.5982H121.388C121.139 12.3465 120.766 12.97 120.518 13.7183Z" fill="#00AEEF"/>
<path fill-rule="evenodd" clip-rule="evenodd" d="M178.912 21.949C178.167 21.949 176.8 21.949 176.8 22.9467C176.8 23.8197 178.663 24.3185 179.409 24.4432C181.645 25.1915 183.509 26.0645 183.509 28.9329C183.509 32.3001 180.776 32.7989 178.167 32.7989C176.676 32.7989 174.439 32.4248 172.948 32.1753C173.321 31.3024 173.694 30.4294 174.066 29.5564C175.06 29.9305 176.054 30.18 177.173 30.18C178.167 30.18 179.782 30.4294 179.782 29.0576C179.782 27.8104 177.545 27.3116 176.551 27.0622C174.563 26.4386 173.072 25.4409 173.072 23.0714C173.072 20.2031 175.806 19.3301 178.167 19.3301C179.657 19.3301 181.645 19.5795 183.012 19.9536C182.639 20.8266 182.267 21.6996 181.894 22.5726C180.9 22.0737 180.03 21.949 178.912 21.949Z" fill="#00AEEF"/>
<path fill-rule="evenodd" clip-rule="evenodd" d="M167.11 23.9445C165.991 26.6881 164.873 29.4318 163.755 32.1754L163.631 32.4249H163.382C162.513 32.4249 161.519 32.4249 160.649 32.4249H160.4L160.276 32.1754C159.158 29.4318 158.04 26.6881 156.922 23.9445C156.922 26.6881 156.922 29.4318 156.922 32.1754V32.4249H156.673C155.803 32.4249 154.934 32.4249 154.064 32.4249H153.815V32.1754C153.815 28.06 153.815 23.9445 153.815 19.829V19.5796H154.064C155.555 19.5796 157.046 19.5796 158.537 19.5796H158.785L158.909 19.829C160.028 22.5727 161.022 25.441 162.14 28.1847C163.258 25.441 164.376 22.5727 165.494 19.829L165.619 19.5796H165.867C167.234 19.5796 168.725 19.5796 170.091 19.5796H170.34V19.829C170.34 23.9445 170.34 28.06 170.34 32.1754V32.4249H170.091C169.222 32.4249 168.352 32.4249 167.482 32.4249H167.234V32.1754C167.11 29.3071 167.11 26.6881 167.11 23.9445Z" fill="#00AEEF"/>
<path fill-rule="evenodd" clip-rule="evenodd" d="M134.184 25.94C134.184 23.4458 133.563 21.6998 130.83 21.6998C128.096 21.6998 127.351 23.4458 127.351 25.94C127.351 28.5589 127.972 30.3049 130.83 30.3049C133.563 30.3049 134.184 28.4342 134.184 25.94ZM137.539 25.94C137.539 30.3049 135.178 32.6744 130.83 32.6744C126.232 32.6744 123.996 30.4296 123.996 25.94C123.996 21.5751 126.481 19.2056 130.83 19.2056C135.302 19.2056 137.539 21.5751 137.539 25.94Z" fill="#00AEEF"/>
<path fill-rule="evenodd" clip-rule="evenodd" d="M116.79 21.9491C116.79 22.8221 116.79 24.9422 116.79 25.8152C118.405 25.8152 120.145 25.8152 121.76 25.8152H122.008V26.0646C122.008 26.6881 122.008 27.3117 122.008 27.9352V28.1847H121.76C120.145 28.1847 118.405 28.1847 116.79 28.1847C116.79 29.9306 116.79 30.3048 116.79 32.0507V32.4249H116.541C115.672 32.4249 114.802 32.4249 113.808 32.4249H113.56V32.1754C113.56 28.06 113.56 23.9445 113.56 19.829V19.5796H113.808C116.541 19.5796 119.275 19.5796 122.008 19.5796H122.257V19.829C122.257 20.4526 122.257 21.0761 122.257 21.6997V21.9491H122.008C120.269 21.9491 118.529 21.9491 116.79 21.9491Z" fill="#00AEEF"/>
<path fill-rule="evenodd" clip-rule="evenodd" d="M107.721 21.9489C107.721 25.3161 107.721 28.6833 107.721 32.0505V32.4247H107.472C106.602 32.4247 105.733 32.4247 104.739 32.4247H104.49V32.1752C104.49 28.808 104.49 25.4408 104.49 22.0736C103.372 22.0736 102.13 22.0736 101.011 22.0736H100.639V21.8242C100.639 21.2006 100.639 20.5771 100.639 19.9535V19.7041H100.887C104.366 19.7041 107.721 19.7041 111.199 19.7041H111.448V19.9535C111.448 20.5771 111.448 21.2006 111.448 21.8242V22.0736H111.199C110.081 21.9489 108.963 21.9489 107.721 21.9489Z" fill="#00AEEF"/>
<path fill-rule="evenodd" clip-rule="evenodd" d="M86.1021 32.4249H85.8536C82.996 32.4249 80.2626 32.4249 77.405 32.4249H77.0322V32.1754C77.0322 28.06 77.0322 23.9445 77.0322 19.829V19.5796H77.2807C78.1504 19.5796 79.0201 19.5796 80.0141 19.5796H80.2626V19.829C80.2626 23.1962 80.2626 26.5634 80.2626 29.9306C82.1262 29.9306 83.8657 29.9306 85.7293 29.9306H85.9778V30.1801V32.4249H86.1021Z" fill="#00AEEF"/>
<path fill-rule="evenodd" clip-rule="evenodd" d="M95.42 27.8105C94.7988 26.314 94.3018 24.8175 93.6806 23.3209C93.0594 24.8175 92.4381 26.314 91.8169 27.8105H95.42ZM90.0775 32.4249C88.9593 32.4249 87.7168 32.4249 86.5986 32.4249L92.3139 19.5796C93.3078 19.5796 94.6745 19.5796 95.5442 19.5796L100.763 32.4249C99.5201 32.4249 98.2776 32.4249 97.1594 32.4249C96.9109 31.6766 96.6624 31.053 96.4139 30.3048H90.9472C90.5745 31.053 90.326 31.6766 90.0775 32.4249Z" fill="#00AEEF"/>
<path fill-rule="evenodd" clip-rule="evenodd" d="M67.589 21.9491C67.589 23.0715 67.589 25.6904 67.589 26.8128C68.2102 26.8128 69.3284 26.8128 69.9496 26.8128C71.0678 26.8128 71.9375 25.5657 71.9375 24.3186C71.9375 22.9468 70.9436 21.9491 69.8254 21.9491C69.2042 21.9491 68.2102 21.9491 67.589 21.9491ZM67.589 29.1824C67.589 30.8036 67.589 30.8036 67.589 32.4249C66.4708 32.4249 65.3526 32.4249 64.2344 32.4249C64.2344 28.1847 64.2344 23.8198 64.2344 19.5796C65.9738 19.5796 68.086 19.5796 69.8254 19.5796C72.5588 19.5796 75.1679 21.2008 75.1679 24.3186C75.1679 27.4364 72.8072 29.1824 69.9496 29.1824C69.3284 29.1824 68.2102 29.1824 67.589 29.1824Z" fill="#00AEEF"/>
<path fill-rule="evenodd" clip-rule="evenodd" d="M143.503 21.9493C143.503 23.0717 143.503 25.6906 143.503 26.813C144.124 26.813 145.242 26.813 145.863 26.813C146.982 26.813 147.851 25.5659 147.851 24.3188C147.851 22.947 146.857 21.9493 145.739 21.9493C145.118 21.9493 144.124 21.9493 143.503 21.9493ZM148.845 28.4343L152.2 32.3003C150.833 32.3003 149.715 32.3003 148.348 32.3003C147.479 31.1779 146.609 30.1802 145.739 29.0578H143.627C143.627 30.6791 143.627 30.6791 143.627 32.3003C142.509 32.3003 141.391 32.3003 140.272 32.3003C140.272 28.0602 140.272 23.6953 140.272 19.4551C142.012 19.4551 144.124 19.4551 145.863 19.4551C148.597 19.4551 151.206 21.0763 151.206 24.1941C151.206 26.1895 150.336 27.686 148.845 28.4343Z" fill="#00AEEF"/>
<path d="M11.0579 45.0208L8.82154 52.8776H7.82759L6.21241 47.1408C6.08816 46.8914 6.08816 46.642 6.08816 46.3926C6.08816 46.642 5.96392 46.8914 5.96392 47.1408L4.34874 52.8776H3.23054L0.994141 45.0208H1.9881L3.60327 51.1316C3.72752 51.381 3.72752 51.6305 3.72752 51.8799C3.72752 51.6305 3.85176 51.381 3.85176 51.1316L5.59119 45.1455H6.4609L8.20032 51.1316C8.20032 51.381 8.32456 51.6305 8.32456 51.8799C8.32456 51.6305 8.44881 51.381 8.44881 51.1316L10.064 45.0208H11.0579Z" fill="#00AEEF"/>
<path d="M19.3823 52.8776H15.2822V45.0208H19.258V45.8937H16.1519V48.5127H19.0096V49.3856H16.1519V52.1293H19.3823V52.8776Z" fill="#00AEEF"/>
<path d="M34.0434 52.8776H29.9434V45.0208H30.8131V52.0046H33.9192V52.8776H34.0434Z" fill="#00AEEF"/>
<path d="M39.8823 45.0208V45.769H39.1369V52.0046H39.8823V52.7529H37.3975V52.0046H38.1429V45.769H37.3975V45.0208H39.8823Z" fill="#00AEEF"/>
<path d="M48.2073 45.8938H45.1012V48.6374H47.9588V49.5104H45.1012V53.0023H44.2314V45.1455H48.2073V45.8938Z" fill="#00AEEF"/>
<path d="M57.4011 45.8937H55.1647V52.8776H54.295V45.8937H52.0586V45.0208H57.5253V45.8937H57.4011Z" fill="#00AEEF"/>
<path d="M72.6835 45.0208L70.0743 50.0092V52.8776H69.2046V50.0092L66.7197 45.0208H67.7137L69.4531 48.5127C69.4531 48.5127 69.5773 48.7621 69.7016 49.0115C69.7016 48.8868 69.8258 48.7621 69.9501 48.5127L71.8137 45.0208H72.6835Z" fill="#00AEEF"/>
<path d="M79.7652 53.0022C78.647 53.0022 77.7773 52.6281 77.1561 51.8798C76.5348 51.1316 76.1621 50.1339 76.1621 49.0115C76.1621 47.7644 76.5348 46.7667 77.1561 46.0184C77.7773 45.2701 78.7712 44.896 79.8894 44.896C81.0076 44.896 81.8774 45.2701 82.4986 46.0184C83.1198 46.7667 83.4925 47.7644 83.4925 48.8868C83.4925 50.1339 83.1198 51.1316 82.4986 51.8798C81.8774 52.6281 80.8834 53.0022 79.7652 53.0022ZM79.7652 45.769C78.8955 45.769 78.2743 46.0184 77.7773 46.642C77.2803 47.2655 77.0318 48.0138 77.0318 49.0115C77.0318 50.0092 77.2803 50.7574 77.7773 51.381C78.2743 52.0045 78.8955 52.254 79.7652 52.254C80.6349 52.254 81.2561 52.0045 81.7531 51.381C82.2501 50.7574 82.4986 50.0092 82.4986 49.0115C82.4986 48.0138 82.2501 47.1408 81.7531 46.642C81.2561 46.1431 80.6349 45.769 79.7652 45.769Z" fill="#00AEEF"/>
<path d="M93.6803 49.7597C93.6803 52.0045 92.6864 53.1269 90.6984 53.1269C88.8348 53.1269 87.8408 52.0045 87.8408 49.8844V45.0207H88.7105V49.7597C88.7105 51.381 89.3318 52.1293 90.6984 52.1293C92.0651 52.1293 92.6864 51.381 92.6864 49.7597V44.896H93.5561V49.7597H93.6803Z" fill="#00AEEF"/>
<path d="M110.826 52.8776H109.832L108.962 50.6328H105.608L104.862 52.8776H103.868L106.85 45.0208H107.844L110.826 52.8776ZM108.714 49.8845L107.471 46.5173C107.471 46.3926 107.347 46.2679 107.347 46.0184C107.347 46.2679 107.223 46.3926 107.223 46.5173L105.98 49.8845H108.714Z" fill="#00AEEF"/>
<path d="M114.927 52.8776V45.0208H117.163C117.784 45.0208 118.406 45.1455 118.778 45.5196C119.151 45.8937 119.4 46.2679 119.4 46.7667C119.4 47.2656 119.275 47.6397 119.027 47.8891C118.778 48.1385 118.406 48.6374 118.033 48.7621C118.53 48.7621 119.027 49.0115 119.275 49.3856C119.524 49.7598 119.772 50.1339 119.772 50.7575C119.772 51.381 119.524 52.0046 119.027 52.3787C118.53 52.7529 117.909 53.0023 117.163 53.0023H114.927V52.8776ZM115.921 45.8937V48.388H116.79C117.287 48.388 117.66 48.2632 118.033 48.0138C118.281 47.7644 118.406 47.3903 118.406 47.0161C118.406 46.2679 117.909 45.8937 116.915 45.8937H115.921ZM115.921 49.2609V52.1293H117.163C117.66 52.1293 118.157 52.0046 118.406 51.7552C118.654 51.5057 118.903 51.1316 118.903 50.7575C118.903 49.8845 118.281 49.3856 117.039 49.3856H115.921V49.2609Z" fill="#00AEEF"/>
<path d="M127.475 53.0022C126.357 53.0022 125.487 52.6281 124.866 51.8798C124.245 51.1316 123.872 50.1339 123.872 49.0115C123.872 47.7644 124.245 46.7667 124.866 46.0184C125.487 45.2701 126.481 44.896 127.599 44.896C128.718 44.896 129.587 45.2701 130.209 46.0184C130.83 46.7667 131.202 47.7644 131.202 48.8868C131.202 50.1339 130.83 51.1316 130.209 51.8798C129.587 52.6281 128.593 53.0022 127.475 53.0022ZM127.599 45.769C126.73 45.769 126.108 46.0184 125.611 46.642C125.115 47.2655 124.866 48.0138 124.866 49.0115C124.866 50.0092 125.115 50.7574 125.611 51.381C126.108 52.0045 126.73 52.254 127.599 52.254C128.469 52.254 129.09 52.0045 129.587 51.381C130.084 50.7574 130.333 50.0092 130.333 49.0115C130.333 48.0138 130.084 47.1408 129.587 46.642C129.09 46.1431 128.469 45.769 127.599 45.769Z" fill="#00AEEF"/>
<path d="M141.639 45.0208L138.781 52.8776H137.787L134.93 45.0208H135.924L138.036 51.2563C138.16 51.5057 138.16 51.6305 138.16 52.0046C138.16 51.7552 138.284 51.5057 138.284 51.2563L140.521 45.0208H141.639Z" fill="#00AEEF"/>
<path d="M149.839 52.8776H145.739V45.0208H149.715V45.8937H146.609V48.5127H149.467V49.3856H146.609V52.1293H149.839V52.8776Z" fill="#00AEEF"/>
<path d="M166.488 52.8776H165.494L164.624 50.6328H161.27L160.524 52.8776H159.53L162.512 45.0208H163.506L166.488 52.8776ZM164.376 49.8845L163.133 46.5173C163.133 46.3926 163.009 46.2679 163.009 46.0184C163.009 46.2679 162.885 46.3926 162.885 46.5173L161.642 49.8845H164.376Z" fill="#00AEEF"/>
<path d="M174.688 52.8776H170.588V45.0208H171.458V52.0046H174.564V52.8776H174.688Z" fill="#00AEEF"/>
<path d="M183.012 52.8776H178.912V45.0208H179.782V52.0046H182.888V52.8776H183.012Z" fill="#00AEEF"/>
</svg>
